<svg xmlns="http://www.w3.org/2000/svg" width="231.031" height="46" viewBox="0 0 231.031 46">
  <defs>
    <style>
      .cls-1 {
        fill: #fff;
        fill-rule: evenodd;
      }
    </style>
  </defs>
  <path id="logo-horizontal.svg" class="cls-1" d="M678.074,496.573a3.311,3.311,0,0,0,1.116-2.364c0-1.791-.994-3.2-4.222-3.2h-12.5v12.17h12.991c3.227,0,4.627-1.495,4.627-3.547A3.374,3.374,0,0,0,678.074,496.573Zm-11.955-3.3h7.53c1,0,1.888,0,1.888,1.251,0,1.269-.893,1.269-1.868,1.269h-7.55v-2.52Zm8.443,7.493h-8.443v-2.574h8.443c0.975,0,1.868,0,1.868,1.287S675.537,500.763,674.562,500.763Zm16.473-.209v-9.545h-3.653v12.17H702v-2.625H691.035Zm33.623,2.625H728.7l-7.347-12.17h-4.933l-7.327,12.17h4.019l1.522-2.591h8.5Zm-8.667-4.92,2.9-4.937,2.882,4.937h-5.785Zm17.853-1.182c0,4.051,2.68,6.276,8.931,6.276,5.663,0,8.5-1.86,8.87-5.389h-3.714c-0.345,1.981-2.131,2.764-5.156,2.764-3.694,0-5.277-1.148-5.277-3.651,0-2.486,1.563-3.616,5.277-3.616,3.045,0,4.811.765,5.156,2.729h3.714c-0.365-3.511-3.207-5.354-8.87-5.354C736.524,490.836,733.844,493.044,733.844,497.077Zm44.545-6.068h-5.541l-10.129,6.311v-6.311h-3.653v12.17h3.653v-2.33l4.364-2.729,6.252,5.059h5.054l-8.606-6.763Zm21.873,2.626v-2.626h-15.02v12.17H788.9v-3.807h10.148v-2.643H788.9v-3.094h11.366Zm10.951-2.626h-3.654v12.17h3.654v-12.17Zm24.748,0H818.505v2.626h6.9v9.544h3.654v-9.544h6.9v-2.626Zm-191.537,1.257c-0.3,3.309,1.812,3.531,2.088,6.455a23.8,23.8,0,0,1-.176,4.836,4.22,4.22,0,0,1-2.39-2.925c-0.558,1.736-.4,2.914-0.478,6.9s-4.242,7.079-4.242,7.079a14.487,14.487,0,0,0-1.613-9.828c-2.828-5.255-1.653-7.528-.9-12.812a7.905,7.905,0,0,0-2.927-7.723,4.655,4.655,0,0,1,4.839.878,3.108,3.108,0,0,0-3.107-3.1,2.4,2.4,0,0,0-.239-2.4,5.6,5.6,0,0,1-8.483.877V480.5a5.6,5.6,0,0,1-8.484-.877,2.4,2.4,0,0,0-.239,2.4,3.108,3.108,0,0,0-3.107,3.1,4.657,4.657,0,0,1,4.84-.877,7.907,7.907,0,0,0-2.928,7.725c0.757,5.285,1.932,7.56-.9,12.815a14.5,14.5,0,0,0-1.613,9.832s-4.162-3.091-4.242-7.081,0.08-5.169-.478-6.906a4.224,4.224,0,0,1-2.39,2.927,30.293,30.293,0,0,1-.117-4.837c0.254-3.217,2.333-3.149,2.029-6.458,0,0-1.772,2.286-4.241,2.282a30.343,30.343,0,0,0,2.449-5.676,13.872,13.872,0,0,1,2.808-5.033,1.9,1.9,0,0,0-1.553.7s-2.609-2.938-.538-5.619,5.556-1.728,6.93-1c0,0,3.007-2.86,4.063-2.927s7.707,1.7,7.707,1.7v0.008s6.651-1.763,7.706-1.7,4.063,2.924,4.063,2.924c1.374-.731,4.859-1.685,6.93,1s-0.538,5.615-.538,5.615a1.9,1.9,0,0,0-1.553-.7,13.863,13.863,0,0,1,2.808,5.031,30.289,30.289,0,0,0,2.449,5.674C646.2,494.551,644.424,492.266,644.424,492.266Zm-33.4-13.521a2.211,2.211,0,0,0-1.852,3.159,1.172,1.172,0,0,1,1.434-.936c0.817,0.244.6,1.522,0.6,1.522l2.569-2.985A3.926,3.926,0,0,0,611.027,478.745Zm33.4,3.165a2.21,2.21,0,0,0-1.852-3.158,3.93,3.93,0,0,0-2.749.761l2.569,2.984s-0.219-1.279.6-1.522A1.172,1.172,0,0,1,644.424,481.91ZM626.8,489.921v0.006a5.785,5.785,0,0,1,3.763.993,2.222,2.222,0,0,0,1.434-.876c1.175,4.071-1.493,5.206-1.493,5.206l-0.239-2.106-1.255.644-0.9-.879a2.415,2.415,0,0,1-1.314,1.054v0a2.418,2.418,0,0,1-1.315-1.053l-0.9.877-1.255-.644-0.239,2.108s-2.668-1.136-1.493-5.209a2.226,2.226,0,0,0,1.434.878A5.792,5.792,0,0,1,626.8,489.921Zm-3.585,8.6c0.1-2.2,2.091-2.617,2.449-1.228s0.518,3.042,1.136,3.042h0c0.617,0,.776-1.653,1.135-3.041s2.35-.971,2.449,1.228c-0.418,5.3-3.584,5.44-3.584,5.44h0S623.633,503.826,623.215,498.524Zm0.717,9.832a1.34,1.34,0,0,0-.359,1.053s-3.843-2.558-1.792-7.724c0,0,.02,3.254,2.091,4.507a2,2,0,0,1,.956-0.762,1.6,1.6,0,0,1,.9.878,1.754,1.754,0,0,1,1.076-.937h0a1.754,1.754,0,0,1,1.075.937,1.6,1.6,0,0,1,.9-0.878,2,2,0,0,1,.956.761c2.071-1.253,2.091-4.5,2.091-4.5,2.051,5.164-1.792,7.723-1.792,7.723a1.341,1.341,0,0,0-.359-1.054c-0.677,1.069-2.867.936-2.867,0.936v0S624.609,509.425,623.932,508.356Zm-5.019-26.217c1.773-.283,1.793.936,1.793,0.936a3.324,3.324,0,0,0-1.135.118C618.917,483.251,618.913,482.139,618.913,482.139Zm5.975,4.8c0,2.263-2.386,1.206-3.645,1.932a2.4,2.4,0,0,0-1.493,2.107s-2.67-5.35,1.434-6.321a2.612,2.612,0,0,1,3.7-1.053s-2.252.064-2.45,2.048C622.438,485.65,624.888,484.675,624.888,486.937Zm9.8-4.792s0,1.112-.658,1.054a3.377,3.377,0,0,0-1.135-.118S632.913,481.862,634.686,482.145Zm-0.837,8.835a2.4,2.4,0,0,0-1.493-2.107c-1.259-.727-3.645.332-3.645-1.93s2.45-1.289,2.45-1.289c-0.2-1.983-2.45-2.046-2.45-2.046a2.612,2.612,0,0,1,3.7,1.052C636.519,485.631,633.849,490.98,633.849,490.98Zm-14.637,8.306a13.122,13.122,0,0,1,.777,5.734,13.4,13.4,0,0,0,.6,5.5,0.742,0.742,0,0,1,1.135-.175,6.032,6.032,0,0,0,5.079,1.814v0a6.028,6.028,0,0,0,5.078-1.814,0.742,0.742,0,0,1,1.135.175,13.391,13.391,0,0,0,.6-5.5,13.122,13.122,0,0,1,.777-5.734,10.2,10.2,0,0,0,.836,5.09c0.817,1.849,2.211,4.274,1.494,8.015s-5.855,6.61-5.855,6.61a11.374,11.374,0,0,1,.179-2.4,13.454,13.454,0,0,1-4.241,4.387V521a13.466,13.466,0,0,1-4.242-4.39,11.407,11.407,0,0,1,.179,2.4s-5.138-2.873-5.855-6.614,0.677-6.168,1.494-8.018A10.2,10.2,0,0,0,619.212,499.286Z" transform="translate(-604.938 -475)"/>
</svg>
